<?xml version="1.0" standalone="no"?>
<!DOCTYPE svg PUBLIC "-//W3C//DTD SVG 20010904//EN"
 "http://www.w3.org/TR/2001/REC-SVG-20010904/DTD/svg10.dtd">
<svg version="1.0" xmlns="http://www.w3.org/2000/svg"
 width="1080.000000pt" height="1080.000000pt" viewBox="0 0 1080.000000 1080.000000"
 preserveAspectRatio="xMidYMid meet">

<g transform="translate(0.000000,1080.000000) scale(0.100000,-0.100000)"
fill="#000000" stroke="none">
<path d="M5260 10713 c-977 -27 -1927 -324 -2750 -861 -995 -649 -1751 -1625
-2128 -2747 -121 -360 -200 -720 -248 -1125 -21 -186 -30 -739 -15 -952 99
-1347 701 -2600 1685 -3508 687 -633 1479 -1056 2387 -1275 702 -169 1545
-183 2259 -39 901 183 1671 557 2410 1173 251 209 596 579 812 871 956 1293
1274 2920 876 4485 -318 1254 -1109 2365 -2198 3092 -914 609 -1986 916 -3090
886z m-1873 -2511 c104 -57 94 -36 222 -482 6 -19 18 -63 28 -97 l17 -63 2131
-2 c2441 -3 2181 8 2290 -102 67 -67 95 -131 95 -215 0 -25 -36 -244 -80 -486
-45 -242 -110 -600 -145 -795 -36 -195 -70 -369 -76 -387 -11 -33 -80 -98
-135 -126 -18 -9 -50 -19 -73 -23 -41 -7 -67 -24 -37 -24 25 0 128 -110 155
-164 l24 -49 -43 -241 c-23 -133 -49 -270 -56 -306 -18 -81 -64 -328 -149
-799 -72 -399 -82 -431 -159 -497 -22 -19 -64 -43 -93 -54 -53 -20 -76 -20
-1858 -20 -1782 0 -1805 0 -1858 20 -29 11 -71 35 -93 54 -74 63 -88 105 -144
411 -27 154 -46 283 -42 287 4 4 700 9 1547 10 l1540 3 53 22 c70 29 138 85
151 126 25 82 92 482 86 515 -10 52 -38 102 -82 143 -79 75 87 69 -1782 69
-924 0 -1682 4 -1685 8 -3 5 -32 157 -65 338 -33 181 -72 390 -86 464 -13 74
-25 143 -25 152 0 16 113 17 1893 20 l1892 3 55 26 c65 30 115 71 134 108 21
40 99 470 93 514 -7 52 -61 132 -116 170 l-46 32 -2040 5 -2040 5 -32 95 c-30
90 -45 140 -149 499 -25 85 -47 158 -50 163 -3 4 -227 8 -497 8 l-493 0 -53
188 c-29 103 -57 198 -62 212 -4 14 -22 79 -40 145 -17 66 -34 128 -36 138 -5
17 41 17 973 15 l979 -3 62 -33z m561 -5107 c111 -33 204 -148 219 -272 13
-117 -64 -255 -177 -314 -38 -20 -60 -24 -140 -24 -80 0 -102 4 -140 23 -61
32 -116 87 -148 147 -23 43 -27 62 -27 140 0 78 4 97 27 140 43 82 112 139
198 166 42 13 134 10 188 -6z m3122 -2 c65 -21 142 -89 178 -157 23 -44 27
-63 27 -141 0 -108 -23 -164 -94 -232 -119 -114 -323 -111 -442 8 -57 57 -81
112 -87 195 -10 153 63 271 203 327 53 21 150 21 215 0z"/>
</g>
</svg>
